<?xml version="1.0"?>
<svg xmlns="http://www.w3.org/2000/svg" viewBox="-40 -40 695.93 207.35" role="img" aria-label="Elevem-se — Mentoria para casais">
<g transform="translate(-69.55,-30.25) scale(1.59)" data-part="simbolo"><path d="M59 99 C 51 80 46 58 51 40 C 54 31 58 30 60 33 C 56 31 49 44 44 64 C 42 80 50 92 59 99 Z" fill="#6E2A36"></path><path d="M61 99 C 69 78 74 56 69 36 C 66 26 62 22 60 19 C 62 23 71 40 76 60 C 78 78 70 92 61 99 Z" fill="#C2A14D"></path></g><g transform="translate(88.95,87.25) scale(0.58)" data-part="nome"><path d="M118 0L12 0L12-3.200L28.200-11.200L28.200-120.800L12-128.800L12-132L112.400-132L112.400-97.600L109.200-97.600L96.200-121L49.200-121L49.200-73.600L82.400-73.600L92.600-90.400L95.800-90.400L95.800-46.200L92.600-46.200L82.400-62.600L49.200-62.600L49.200-11L101.600-11L114.800-37.400L118-37.400L118 0ZM184 0L140 0L140-3.200L152.600-9.600L152.600-127.200L140.600-137.400L140.600-139L170-150L171.600-150L171.600-9.600L184-3.200L184 0ZM243.800 2L243.800 2Q224.200 2 212.800-9.800Q201.400-21.600 201.400-41.200L201.400-41.200Q201.400-56 207.500-67.600Q213.600-79.200 223.700-85.700Q233.800-92.200 245.600-92.200L245.600-92.200Q261.400-92.200 270.500-81.300Q279.600-70.400 279.800-50L279.800-50L278.800-49L219.800-49Q220-39.800 223.300-32Q226.600-24.200 234-19.400Q241.400-14.600 253.600-14.600L253.600-14.600Q265.200-14.600 279.400-22.200L279.400-22.200L280-22.200L280-19.800Q275.200-10.600 265.800-4.300Q256.400 2 243.800 2ZM242-83.400L242-83.400Q233.200-83.400 227.500-76.800Q221.800-70.200 220.400-58.200L220.400-58.200L262.800-58.200Q260.800-71.600 255.600-77.500Q250.400-83.400 242-83.400ZM339.200 0L334.200 0L297.400-81L284.200-87L284.200-90.200L334-90.200L334-87L318.200-81.200L318.200-80L342.800-27L343.600-27L365.200-79L365.200-80L351.200-87L351.200-90.200L390.400-90.200L390.400-87L375.800-80.200L339.200 0ZM437 2L437 2Q417.400 2 406-9.800Q394.600-21.600 394.600-41.200L394.600-41.200Q394.600-56 400.700-67.600Q406.800-79.200 416.900-85.700Q427-92.200 438.800-92.200L438.800-92.200Q454.600-92.200 463.700-81.300Q472.800-70.400 473-50L473-50L472-49L413-49Q413.200-39.800 416.500-32Q419.800-24.200 427.200-19.400Q434.600-14.600 446.800-14.600L446.800-14.600Q458.400-14.600 472.600-22.200L472.600-22.200L473.200-22.200L473.200-19.800Q468.400-10.600 459-4.300Q449.600 2 437 2ZM435.200-83.400L435.200-83.400Q426.400-83.400 420.700-76.800Q415-70.200 413.600-58.200L413.600-58.200L456-58.200Q454-71.600 448.800-77.500Q443.600-83.400 435.200-83.400ZM535.200 0L491.400 0L491.400-3.200L504.200-9.600L504.200-69.400L492-79.400L492-81L519.600-92.200L521-92.200L522.800-77.400L523.800-77.400Q531.200-85 538-88.600Q544.800-92.200 553.200-92.200L553.200-92.200Q562.800-92.200 569.700-87.900Q576.600-83.600 578.600-75.200L578.600-75.200L579.200-75.200Q587.400-83.800 594.600-88Q601.800-92.200 610.800-92.200L610.800-92.200Q622.400-92.200 629.700-86.300Q637-80.400 637-68.600L637-68.600L637-9.600L649.800-3.200L649.800 0L604.800 0L604.800-3.200L618.200-9.600L618.200-59.400Q618.200-68 613.200-72.300Q608.200-76.600 600.400-76.600L600.400-76.600Q594.200-76.600 588.600-74.500Q583-72.400 579.200-68.600L579.200-68.600L579.200-9.600L592.200-3.200L592.200 0L547.800 0L547.800-3.200L560.400-9.600L560.400-59.400Q560.400-68 555.500-72.300Q550.600-76.600 542.800-76.600L542.800-76.600Q538-76.600 532.300-74.900Q526.600-73.200 523-70L523-70L523-9.600L535.200-3.200L535.200 0ZM721.400-44.400L666.400-44.400L666.400-58.400L721.400-58.400L721.400-44.400ZM773.800 2L773.800 2Q764.200 2 757.400 0.300Q750.600-1.400 743.400-5L743.400-5L743.400-27.400L746.400-27.400L752.800-16.600Q759.400-5.600 773.200-5.600L773.200-5.600Q781.200-5.600 785.500-9.200Q789.800-12.800 789.800-19.200L789.800-19.200Q789.800-24.400 787.200-27.600Q784.600-30.800 779.500-33.200Q774.400-35.600 767-39L767-39Q756.600-43.600 751.100-49.200Q745.600-54.800 745.600-64.600L745.600-64.600Q745.600-72.400 749.900-78.600Q754.200-84.800 761-88.500Q767.800-92.200 775.400-92.200L775.400-92.200Q782.600-92.200 789-90.500Q795.400-88.800 801.600-85.600L801.600-85.600L801.600-63.400L798.800-63.400L792.200-73.800Q785.600-84.200 776-84.200L776-84.200Q769.400-84.200 765.400-80.900Q761.400-77.600 761.400-71.800L761.400-71.800Q761.400-65.400 766-61.900Q770.600-58.400 780.800-54L780.800-54Q786.400-51.400 792-48.500Q797.600-45.600 801.400-40.500Q805.200-35.400 805.200-26L805.200-26Q805.200-16.800 800.300-10.600Q795.400-4.400 788.200-1.200Q781 2 773.800 2ZM869.800 2L869.800 2Q850.200 2 838.800-9.800Q827.400-21.600 827.400-41.200L827.400-41.200Q827.400-56 833.500-67.600Q839.600-79.200 849.700-85.700Q859.800-92.200 871.600-92.200L871.600-92.200Q887.400-92.200 896.500-81.300Q905.600-70.400 905.800-50L905.800-50L904.800-49L845.800-49Q846-39.800 849.300-32Q852.600-24.200 860-19.400Q867.400-14.600 879.600-14.600L879.600-14.600Q891.200-14.600 905.400-22.200L905.400-22.200L906-22.200L906-19.800Q901.200-10.600 891.800-4.300Q882.400 2 869.800 2ZM868-83.400L868-83.400Q859.200-83.400 853.500-76.800Q847.800-70.200 846.400-58.200L846.400-58.200L888.800-58.200Q886.800-71.600 881.600-77.500Q876.400-83.400 868-83.400Z" fill="#5C2230"></path></g><g transform="translate(93.49,127.09) scale(0.48)" data-part="tag"><path d="M10.740 0L5.040 0L5.040-42.300L10.500-42.300L25.920-7.560L41.340-42.300L46.740-42.300L46.740 0L41.100 0L41.100-29.460L27.840 0L23.940 0L10.740-29.340L10.740 0ZM102.540 0L74.820 0L74.820-42.300L102.540-42.300L102.540-37.320L80.880-37.320L80.880-24L101.160-24L101.160-18.960L80.880-18.960L80.880-5.040L102.540-5.040L102.540 0ZM134.100 0L128.280 0L128.280-42.300L133.080-42.300L157.560-10.200L157.560-42.300L163.380-42.300L163.380 0L158.640 0L134.100-32.280L134.100 0ZM207.660 0L201.420 0L201.420-37.080L186.960-37.080L186.960-42.300L222.120-42.300L222.120-37.080L207.660-37.080L207.660 0ZM244.500-21.180L244.500-21.180Q244.500-27.840 246.840-32.700Q249.180-37.560 253.650-40.200Q258.120-42.840 264.300-42.840L264.300-42.840Q270.420-42.840 274.860-40.200Q279.300-37.560 281.730-32.700Q284.160-27.840 284.160-21.240L284.160-21.240Q284.160-14.580 281.730-9.690Q279.300-4.800 274.830-2.130Q270.360 0.540 264.300 0.540L264.300 0.540Q258.120 0.540 253.680-2.130Q249.240-4.800 246.870-9.690Q244.500-14.580 244.500-21.180ZM251.040-21.180L251.040-21.180Q251.040-13.500 254.400-9.180Q257.760-4.860 264.300-4.860L264.300-4.860Q270.660-4.860 274.140-9.150Q277.620-13.440 277.620-21.180L277.620-21.180Q277.620-28.920 274.170-33.180Q270.720-37.440 264.300-37.440L264.300-37.440Q257.760-37.440 254.400-33.180Q251.040-28.920 251.040-21.180ZM316.920 0L310.680 0L310.680-42.300L328.560-42.300Q335.340-42.300 339.060-39.090Q342.780-35.880 342.780-30.120L342.780-30.120Q342.780-26.340 341.100-23.640Q339.420-20.940 336.360-19.560L336.360-19.560Q335.340-19.080 334.140-18.720L334.140-18.720Q335.220-18.420 336.180-17.820L336.180-17.820Q338.100-16.560 339.360-13.800L339.360-13.800L345.420 0L338.580 0L332.580-13.860Q331.680-16.320 329.790-17.040Q327.900-17.760 325.140-17.760L325.140-17.760L316.920-17.760L316.920 0ZM316.920-37.320L316.920-22.500L327.540-22.500Q332.040-22.500 334.350-24.420Q336.660-26.340 336.660-29.940L336.660-29.940Q336.660-33.600 334.350-35.460Q332.040-37.320 327.540-37.320L327.540-37.320L316.920-37.320ZM376.740 0L370.500 0L370.500-42.300L376.740-42.300L376.740 0ZM406.620 0L400.320 0L419.160-42.300L424.500-42.300L443.640 0L437.220 0L432.720-10.320L411.120-10.320L406.620 0ZM421.980-35.460L421.740-35.460L413.220-15.300L430.680-15.300L421.980-35.460ZM507.480 0L501.240 0L501.240-42.300L519.180-42.300Q525.960-42.300 529.590-39.030Q533.220-35.760 533.220-30L533.220-30Q533.220-24.240 529.590-20.940Q525.960-17.640 519.180-17.640L519.180-17.640L507.480-17.640L507.480 0ZM507.480-37.320L507.480-22.620L518.520-22.620Q522.780-22.620 524.940-24.540Q527.100-26.460 527.100-30L527.100-30Q527.100-33.480 524.940-35.400Q522.780-37.320 518.520-37.320L518.520-37.320L507.480-37.320ZM560.640 0L554.340 0L573.180-42.300L578.520-42.300L597.660 0L591.240 0L586.740-10.320L565.140-10.320L560.640 0ZM576.000-35.460L575.760-35.460L567.240-15.300L584.700-15.300L576.000-35.460ZM627.480 0L621.240 0L621.240-42.300L639.120-42.300Q645.900-42.300 649.620-39.090Q653.340-35.880 653.340-30.120L653.340-30.120Q653.340-26.340 651.660-23.640Q649.980-20.940 646.920-19.560L646.920-19.560Q645.900-19.080 644.700-18.720L644.700-18.720Q645.780-18.420 646.740-17.820L646.740-17.820Q648.660-16.560 649.920-13.800L649.920-13.800L655.980 0L649.140 0L643.140-13.860Q642.240-16.320 640.350-17.040Q638.460-17.760 635.700-17.760L635.700-17.760L627.480-17.760L627.480 0ZM627.480-37.320L627.480-22.500L638.100-22.500Q642.600-22.500 644.910-24.420Q647.220-26.340 647.220-29.940L647.220-29.940Q647.220-33.600 644.910-35.460Q642.600-37.320 638.100-37.320L638.100-37.320L627.480-37.320ZM682.980 0L676.680 0L695.520-42.300L700.860-42.300L720.000 0L713.580 0L709.080-10.320L687.480-10.320L682.980 0ZM698.340-35.460L698.100-35.460L689.580-15.300L707.040-15.300L698.340-35.460ZM796.620 0.540L796.620 0.540Q790.140 0.540 785.580-2.100Q781.020-4.740 778.590-9.630Q776.160-14.520 776.160-21.180L776.160-21.180Q776.160-27.840 778.590-32.700Q781.020-37.560 785.580-40.200Q790.140-42.840 796.620-42.840L796.620-42.840Q801.120-42.840 804.660-41.520Q808.200-40.200 810.840-37.680L810.840-37.680L808.680-32.700Q805.800-35.160 803.070-36.240Q800.340-37.320 796.740-37.320L796.740-37.320Q789.900-37.320 786.300-33.120Q782.700-28.920 782.700-21.180L782.700-21.180Q782.700-13.440 786.300-9.210Q789.900-4.980 796.740-4.980L796.740-4.980Q800.340-4.980 803.070-6.060Q805.800-7.140 808.680-9.660L808.680-9.660L810.840-4.680Q808.200-2.160 804.660-0.810Q801.120 0.540 796.620 0.540ZM838.620 0L832.320 0L851.160-42.300L856.500-42.300L875.640 0L869.220 0L864.720-10.320L843.120-10.320L838.620 0ZM853.980-35.460L853.740-35.460L845.220-15.300L862.680-15.300L853.980-35.460ZM913.500 0.540L913.500 0.540Q908.400 0.540 904.260-0.750Q900.120-2.040 897.060-4.440L897.060-4.440L899.160-9.360Q901.200-7.800 903.390-6.780Q905.580-5.760 908.070-5.250Q910.560-4.740 913.500-4.740L913.500-4.740Q918.540-4.740 920.910-6.540Q923.280-8.340 923.280-11.280L923.280-11.280Q923.280-13.800 921.630-15.180Q919.980-16.560 915.840-17.400L915.840-17.400L909.300-18.720Q903.480-19.920 900.630-22.650Q897.780-25.380 897.780-30.120L897.780-30.120Q897.780-33.960 899.820-36.840Q901.860-39.720 905.490-41.280Q909.120-42.840 913.980-42.840L913.980-42.840Q918.480-42.840 922.260-41.550Q926.040-40.260 928.620-37.740L928.620-37.740L926.580-33Q923.880-35.340 920.820-36.450Q917.760-37.560 913.860-37.560L913.860-37.560Q909.240-37.560 906.630-35.640Q904.020-33.720 904.020-30.420L904.020-30.420Q904.020-27.780 905.670-26.280Q907.320-24.780 911.160-24L911.160-24L917.700-22.740Q923.760-21.480 926.640-18.870Q929.520-16.260 929.520-11.700L929.520-11.700Q929.520-8.040 927.570-5.280Q925.620-2.520 922.020-0.990Q918.420 0.540 913.500 0.540ZM957.120 0L950.820 0L969.660-42.300L975.000-42.300L994.140 0L987.720 0L983.220-10.320L961.620-10.320L957.120 0ZM972.480-35.460L972.240-35.460L963.720-15.300L981.180-15.300L972.480-35.460ZM1023.960 0L1017.720 0L1017.720-42.300L1023.960-42.300L1023.960 0ZM1066.200 0.540L1066.200 0.540Q1061.100 0.540 1056.960-0.750Q1052.820-2.040 1049.760-4.440L1049.760-4.440L1051.860-9.360Q1053.900-7.800 1056.090-6.780Q1058.280-5.760 1060.770-5.250Q1063.260-4.740 1066.200-4.740L1066.200-4.740Q1071.240-4.740 1073.610-6.540Q1075.980-8.340 1075.980-11.280L1075.980-11.280Q1075.980-13.800 1074.330-15.180Q1072.680-16.560 1068.540-17.400L1068.540-17.400L1062.000-18.720Q1056.180-19.920 1053.330-22.650Q1050.480-25.380 1050.480-30.120L1050.480-30.120Q1050.480-33.960 1052.520-36.840Q1054.560-39.720 1058.190-41.280Q1061.820-42.840 1066.680-42.840L1066.680-42.840Q1071.180-42.840 1074.960-41.550Q1078.740-40.260 1081.320-37.740L1081.320-37.740L1079.280-33Q1076.580-35.340 1073.520-36.450Q1070.460-37.560 1066.560-37.560L1066.560-37.560Q1061.940-37.560 1059.330-35.640Q1056.720-33.720 1056.720-30.420L1056.720-30.420Q1056.720-27.780 1058.370-26.280Q1060.020-24.780 1063.860-24L1063.860-24L1070.400-22.740Q1076.460-21.480 1079.340-18.870Q1082.220-16.260 1082.220-11.700L1082.220-11.700Q1082.220-8.040 1080.270-5.280Q1078.320-2.520 1074.720-0.990Q1071.120 0.540 1066.200 0.540Z" fill="#735422"></path></g>
</svg>